Coordinates
nRows=125
nColumns=2
inDegrees=yes
endheader
time	ankle_angle_r	
2.3619	 -5.176350	
2.43347	 -5.210075	
2.50504	 -5.156367	
2.57661	 -5.143230	
2.64819	 -5.176527	
2.71976	 -5.204393	
2.79133	 -5.203290	
2.8629	 -5.198995	
2.93448	 -5.211004	
3.00605	 -5.178826	
3.07762	 -5.169318	
3.14919	 -5.221407	
3.22077	 -5.261981	
3.29234	 -5.287124	
3.36391	 -5.264090	
3.43548	 -5.246277	
3.50706	 -5.301915	
3.57863	 -5.304968	
3.6502	 -5.264156	
3.72177	 -5.274738	
3.79335	 -5.285576	
3.86492	 -5.278124	
3.93649	 -5.264880	
4.00806	 -5.248769	
4.07964	 -5.248585	
4.15121	 -5.241249	
4.22278	 -5.200985	
4.29435	 -5.180392	
4.36593	 -5.210090	
4.4375	 -5.222718	
4.50907	 -5.232408	
4.58065	 -5.225634	
4.65222	 -5.155854	
4.72379	 -5.136672	
4.79536	 -5.114980	
4.86694	 -5.031796	
4.93851	 -5.032210	
5.01008	 -5.056231	
5.08165	 -5.026750	
5.15323	 -5.044539	
5.2248	 -5.107598	
5.29637	 -5.118485	
5.36794	 -5.093059	
5.43952	 -5.110208	
5.51109	 -5.164154	
5.58266	 -5.206790	
5.65423	 -5.213329	
5.72581	 -5.221946	
5.79738	 -5.253504	
5.86895	 -5.267679	
5.94052	 -5.248911	
6.0121	 -5.239533	
6.08367	 -5.277116	
6.15524	 -5.279971	
6.22681	 -5.183432	
6.29839	 -5.101414	
6.36996	 -5.124201	
6.44153	 -5.125150	
6.5131	 -5.069746	
6.58468	 -5.105826	
6.65625	 -5.147551	
6.72782	 -5.093653	
6.7994	 -5.071708	
6.87097	 -5.084263	
6.94254	 -5.077211	
7.01411	 -5.120834	
7.08569	 -5.176772	
7.15726	 -5.134152	
7.22883	 -5.076308	
7.3004	 -5.119364	
7.37198	 -5.176929	
7.44355	 -5.181307	
7.51512	 -5.213738	
7.58669	 -5.282484	
7.65827	 -5.290000	
7.72984	 -5.243529	
7.80141	 -5.250680	
7.87298	 -5.286010	
7.94456	 -5.267365	
8.01613	 -5.231801	
8.0877	 -5.253875	
8.15927	 -5.297144	
8.23085	 -5.257697	
8.30242	 -5.225844	
8.37399	 -5.277212	
8.44556	 -5.297093	
8.51714	 -5.245748	
8.58871	 -5.193303	
8.66028	 -5.198742	
8.73185	 -5.184991	
8.80343	 -5.170428	
8.875	 -5.183844	
8.94657	 -5.116169	
9.01815	 -5.111389	
9.08972	 -5.159820	
9.16129	 -5.098666	
9.23286	 -5.084387	
9.30444	 -5.153981	
9.37601	 -5.164196	
9.44758	 -5.107068	
9.51915	 -5.085387	
9.59073	 -5.119900	
9.6623	 -5.175595	
9.73387	 -5.243646	
9.80544	 -5.277455	
9.87702	 -5.290523	
9.94859	 -5.293639	
10.0202	 -5.317460	
10.0917	 -5.380224	
10.1633	 -5.399809	
10.2349	 -5.374593	
10.3065	 -5.323338	
10.378	 -5.288365	
10.4496	 -5.304903	
10.5212	 -5.310761	
10.5927	 -5.281072	
10.6643	 -5.260917	
10.7359	 -5.288859	
10.8075	 -5.289103	
10.879	 -5.250502	
10.9506	 -5.261810	
11.0222	 -5.270703	
11.0937	 -5.242345	
11.1653	 -5.206465	
11.2369	 -5.145137	
